<?xml version="1.0" encoding="utf-8"?>
<!-- Generator: Adobe Illustrator 23.0.1, SVG Export Plug-In . SVG Version: 6.00 Build 0)  -->
<svg version="1.1" id="レイヤー_1" xmlns="http://www.w3.org/2000/svg" xmlns:xlink="http://www.w3.org/1999/xlink" x="0px"
	 y="0px" viewBox="0 0 500 120" style="enable-background:new 0 0 500 120;" xml:space="preserve">
<style type="text/css">
	.st0{fill:#231815;}
	.st1{fill:#FFFFFF;}
</style>
<g>
	<g>
		<path class="st0" d="M62.7,95.9c0,2.4-1.3,3.6-3.9,3.6c-1.7,0-2.9-0.9-3.4-2.6L48.7,77H24l-6.6,19.9c-0.6,1.7-1.7,2.6-3.4,2.6
			c-2.6,0-3.9-1.2-3.9-3.6c0-0.4,0.1-0.9,0.3-1.4l22.3-66.9c0.7-2.1,2-3.2,3.8-3.2s3,1,3.8,3.2l22.3,66.9
			C62.6,95,62.7,95.4,62.7,95.9z M46.2,69.5l-9.8-29.5l-9.8,29.5H46.2z"/>
		<path class="st0" d="M160.9,95.7c0,2.5-1.3,3.8-3.8,3.8s-3.8-1.3-3.8-3.8V69.5c0-4.1-1.5-7.7-4.4-10.6c-2.9-2.9-6.5-4.4-10.6-4.4
			c-4.1,0-7.7,1.5-10.6,4.4s-4.4,6.5-4.4,10.6v26.3c0,2.5-1.3,3.8-3.8,3.8s-3.8-1.3-3.8-3.8v-45c0-2.5,1.3-3.8,3.8-3.8
			c2.5,0,3.8,1.9,3.8,5.8c4.3-3.8,9.3-5.8,15-5.8c6.2,0,11.5,2.2,15.9,6.6c4.4,4.4,6.6,9.7,6.6,15.9V95.7z"/>
		<path class="st0" d="M261.7,95.7c0,2.5-1.3,3.8-3.8,3.8s-3.8-1.3-3.8-3.8V69.5c0-4.1-1.5-7.7-4.4-10.6c-2.9-2.9-6.5-4.4-10.6-4.4
			c-4.1,0-7.7,1.5-10.6,4.4c-2.9,2.9-4.4,6.5-4.4,10.6v26.3c0,2.5-1.3,3.8-3.8,3.8s-3.8-1.3-3.8-3.8v-45c0-2.5,1.3-3.8,3.8-3.8
			c2.5,0,3.8,1.9,3.8,5.8c4.3-3.8,9.3-5.8,15-5.8c6.2,0,11.5,2.2,15.9,6.6c4.4,4.4,6.6,9.7,6.6,15.9V95.7z"/>
		<path class="st0" d="M350.3,95.8c0,2.5-1.3,3.8-3.8,3.8h-15c-2.5,0-3.8-1.3-3.8-3.8V54.5h-11.3c-2.5,0-3.8-1.3-3.8-3.8
			s1.3-3.8,3.8-3.8h15c2.5,0,3.7,1.3,3.7,3.8V92h11.3C349.1,92,350.3,93.3,350.3,95.8z M337.3,30.2c0,1.6-0.6,2.9-1.7,4
			s-2.5,1.6-4,1.6c-1.6,0-2.9-0.5-4-1.6c-1.1-1.1-1.7-2.4-1.7-4c0-1.6,0.6-2.9,1.7-4c1.1-1.1,2.5-1.7,4-1.7c1.6,0,2.9,0.6,4,1.7
			C336.7,27.2,337.3,28.6,337.3,30.2z"/>
	</g>
	<g>
		<g>
			<path class="st0" d="M411.5,102.2c0,0,35.9-13.6,58.3,0l9.5-8L474.6,60l-10.9-14.5h-52.2l-6.7,21.1
				C404.8,66.5,400.8,98.9,411.5,102.2z"/>
		</g>
		<g>
			<g>
				<path class="st1" d="M473.1,72.2c0,19.7-14.2,31.9-31.7,31.9c-17.5,0-31.7-12.2-31.7-31.9s14.2-39.6,31.7-39.6
					C458.9,32.6,473.1,52.4,473.1,72.2z"/>
			</g>
			<g>
				<path class="st0" d="M441.4,105.5c-19.5,0-33.2-13.7-33.2-33.4c0-19.4,14.2-41.1,33.2-41.1c19,0,33.2,21.7,33.2,41.1
					C474.6,91.8,460.9,105.5,441.4,105.5z M441.4,34c-17.3,0-30.2,20.1-30.2,38.1c0,17.9,12.4,30.4,30.2,30.4
					c17.8,0,30.2-12.5,30.2-30.4C471.6,54.2,458.7,34,441.4,34z"/>
			</g>
		</g>
		<g>
			<g>
				<circle class="st0" cx="424" cy="66.5" r="4.2"/>
			</g>
			<g>
				<circle class="st0" cx="459.6" cy="66.5" r="4.2"/>
			</g>
		</g>
		<g>
			<path class="st0" d="M430.3,81.2c0,5.8,5,10.5,11.1,10.5c6.1,0,11.1-4.7,11.1-10.5H430.3z"/>
		</g>
		<g>
			<path class="st0" d="M440.6,17.7c-49.7-1.9-44.9,62.9-44.9,62.9c0.4,23.9,15.7,21.7,15.7,21.7C401.4,86,415,56.9,415,56.9
				s35.6,0,52.9,0c0,0,12,29.1,1.9,45.4c0,0,15.3,2.3,15.7-21.7C485.5,80.6,490.4,15.8,440.6,17.7z"/>
		</g>
	</g>
</g>
</svg>
